    <svg xmlns="http://www.w3.org/2000/svg">
      <symbol viewbox="0 0 16 16" id="icon-login">
        <path fill-rule="evenodd" clip-rule="evenodd" d="M10.67 4a2.67 2.67 0 1 1-5.34 0 2.67 2.67 0 0 1 5.34 0ZM12 4a4 4 0 1 1-8 0 4 4 0 0 1 8 0Zm-8.8 8.31A7.55 7.55 0 0 1 8 10.67c1.84 0 3.56.6 4.8 1.64A4.83 4.83 0 0 1 14.67 16H16c0-1.77-.84-3.46-2.34-4.71A8.88 8.88 0 0 0 8 9.33c-2.12 0-4.16.7-5.66 1.96A6.16 6.16 0 0 0 0 16h1.33c0-1.33.63-2.66 1.87-3.69Z"/>
      </symbol>
      <symbol viewBox="0 0 16 16" id="icon-basket">
        <path fill-rule="evenodd" clip-rule="evenodd" d="m5.66 3.88.23 2.79h4.22l.23-2.8a2.35 2.35 0 1 0-4.68 0Zm5.78 2.79.23-2.68a3.68 3.68 0 1 0-7.34 0l.23 2.68H0L.19 8l.82 5.71A2.67 2.67 0 0 0 3.65 16h8.7c1.33 0 2.46-.98 2.64-2.29L15.81 8 16 6.67H11.45ZM11.34 8h-.06l-.22 2.67h3.02L14.46 8h-3.13Zm-1.4 0H6.06l.22 2.67h3.44L9.94 8ZM4.72 8H1.54l.38 2.67h3.02L4.72 8Zm1.9 6.67L6.38 12h3.22l-.22 2.67H6.6ZM10.94 12l-.23 2.67h1.63c.67 0 1.23-.5 1.32-1.15L13.9 12h-2.94Zm-5.9 0 .23 2.67H3.65c-.67 0-1.23-.5-1.32-1.15L2.1 12h2.94Z"/>
      </symbol>
      <symbol viewBox="0 0 52 56" id="speed">
        <path fill-rule="evenodd" clip-rule="evenodd" d="M23 4h8v3h-3v3.02c3.82.16 7.39 1.26 10.5 3.06 1.85-1.93 6.26.17 4.76 3.66l-.1-.1a23 23 0 1 1-32.43.1c-2.02-3.03 2.59-6.16 4.77-3.66 3.11-1.8 6.68-2.9 10.5-3.06V7h-3V4Z" fill="#F0EBFF"/>
        <path fill-rule="evenodd" clip-rule="evenodd" d="M26 1h-6v1h6V1Zm-2 2h3V0h-8v3h3v3.02a22.87 22.87 0 0 0-9.6 2.57l-.15-.17c-1.53-1.76-3.85-1.44-5.3-.4a4.14 4.14 0 0 0-1.6 2.26c-.26.96-.1 2.02.56 3.01l.12.19a23 23 0 1 0 33.99.05l.16-.4c.47-1.08.5-2.13.17-3.04-.32-.9-.95-1.6-1.68-2.06-1.41-.89-3.54-1.06-4.9.36l-.17.2A22.87 22.87 0 0 0 24 6.01V3Zm-1 4c-3.86 0-7.49 1-10.64 2.74l-.36.2a22 22 0 1 0 22 0l-.36-.2A21.9 21.9 0 0 0 23 7ZM11.5 9.08a23.08 23.08 0 0 0-4.76 3.66 2.98 2.98 0 0 1-.44-.98c-.55-2.31 2.31-4.31 4.35-3.34.3.15.6.37.85.66Zm23 0a23.08 23.08 0 0 1 4.76 3.66c.17-.4.26-.77.3-1.12.2-2.33-2.32-3.74-4.1-3.14-.36.12-.69.32-.96.6ZM23 31a2 2 0 0 0 .86-3.8l-.91-.2a2 2 0 0 0 .05 4Zm-.64-4.93-1.34-4.94-.04-.14.05-.15 1.5-4.5.47-1.42.47 1.42 1.5 4.5.05.15-.04.14-1.34 4.94.37.1 7.55-13.42.88.5-7.55 13.42a3 3 0 1 1-2.53-.6ZM22.02 21 23 24.6l.98-3.59-.98-2.93-.98 2.93Z" fill="#7859CF"/>
      </symbol>
      <symbol viewBox="0 0 52 56" id="convenience">
        <path d="M4 4h48l-4 44-20 8-20-8L4 4Z" fill="#F0EBFF"/>
        <path fill-rule="evenodd" clip-rule="evenodd" d="M1 0H0l.1 1L4 44l20 8 20-8 3.9-43 .1-1H1Zm.1 1 .36 4H46.54l.37-4H1.1Zm40.8 5H6.1l.1 1.13-.5.05-.5.04L5.09 6H1.55l3.39 37.3L24 50.92l19.06-7.62L46.45 6h-3.54l-.1 1.22-.5-.04-.5-.05.1-1.13ZM6.1 11.62l-.5.04.39 4.45.5-.05.5-.04-.4-4.45-.5.05Zm.78 8.88-.5.05.4 4.44.5-.04.5-.05-.4-4.44-.5.04Zm.8 8.89-.5.04.4 4.45.5-.05.49-.04-.4-4.45-.5.05Zm.79 8.88-.5.05.2 2.22 1.98.8.18-.46.2-.46-1.42-.58-.15-1.61-.5.04Zm5.82 4.23-.19.46 3.96 1.62.2-.47.18-.46-3.96-1.61-.19.46Zm7.92 3.23-.19.46L24 47l1.98-.8-.19-.47-.19-.46-1.6.65-1.6-.65-.19.46Zm7.54-1.62.19.47 3.96-1.62-.2-.46-.18-.46-3.96 1.61.19.46Zm7.92-3.23.18.47 1.98-.81.2-2.22-.5-.05-.5-.04-.14 1.61-1.41.58.19.46Zm2.26-7.05.5.05.4-4.45-.5-.04-.5-.05-.4 4.45.5.04Zm.8-8.88.49.04.4-4.44-.5-.05-.5-.04-.4 4.44.5.05Zm.78-8.89.5.05.4-4.45-.5-.04-.5-.05-.4 4.45.5.04Z" fill="#7859CF"/>
      </symbol>
      <symbol viewBox="0 0 52 56" id="cheerfulness">
       <path fill-rule="evenodd" clip-rule="evenodd" d="M24.97 35.2 43.13 4 9 30.68l15.97 4.52Zm6.06-10.4L12.87 56 47 29.32 31.03 24.8Z" fill="#F0EBFF"/>
       <path fill-rule="evenodd" clip-rule="evenodd" d="M39.13 0 5 26.68l15.97 4.52L8.87 52 43 25.32 27.03 20.8 39.13 0Zm1.7 25.75-15.32-4.34L35.66 4 7.16 26.25l15.33 4.34L12.34 48l28.5-22.26Z" fill="#7859CF"/>
      </symbol>
      <symbol viewBox="0 0 52 56" id="environmental">
       <path fill-rule="evenodd" clip-rule="evenodd" d="M41.7 22.12C42.49 15.56 43.2 9.35 49 4c-26.5 0-34.15 8.13-38 14-8.54 13.04-.91 25.67.71 28.09A808.64 808.64 0 0 0 7 55.56l.88.44a825.82 825.82 0 0 1 4.63-9.32c2.6.87 14.45 4.19 21.99-4.68 5.66-6.66 6.45-13.44 7.2-19.88Z" fill="#F0EBFF"/>
       <path fill-rule="evenodd" clip-rule="evenodd" d="M8.23 41.05C12.2 33.26 16.7 25.1 21.27 20l.73.66c-4.57 5.08-9.07 13.3-13.03 21.12A26.2 26.2 0 0 0 16.09 43c4.38.12 9.66-.96 13.65-5.65 5.46-6.42 6.22-12.94 6.98-19.4l.02-.13c.68-5.81 1.38-11.64 5.87-16.8-11.79.23-19.48 2.16-24.67 4.68a23.8 23.8 0 0 0-10.1 8.85A22.6 22.6 0 0 0 4.9 33.43a28.93 28.93 0 0 0 3.33 7.63Zm-.52 1.04C6.1 39.67-1.54 27.04 7 14 10.78 8.24 18.23.3 43.55 0H45a22 22 0 0 0-1.02 1c-4.87 5.12-5.55 10.96-6.27 17.12-.76 6.44-1.55 13.22-7.21 19.88-7.54 8.87-19.4 5.55-21.99 4.68L5.86 48c-.68 1.4-1.34 2.73-1.98 4L3 51.56l1.97-3.96 2.74-5.51Z" fill="#7859CF"/>
      </symbol>
      <symbol viewBox="0 0 10 10" id="arrow">
        <path fill-rule="evenodd" clip-rule="evenodd" d="M5.8 0 7 1.24 3.38 5 7 8.76 5.8 10 1 5l4.8-5Z"/>
      </symbol>
      <symbol viewBox="0 0 32 36" id="logo-symbol">
        <path fill-rule="evenodd" clip-rule="evenodd" d="M32 18c0 2.87-.6 5.59-1.66 8H17c2.46-3.77 5-8.34 5-13A13 13 0 0 0 12.42.45C13.57.15 14.77 0 16 0c8.84 0 16 8.06 16 18Zm-14-5a9 9 0 0 0-9-9c-6.65 0-9 8.5-9 14 0 9.94 7.16 18 16 18 4.74 0 9-2.32 11.93-6H9l1.1-1.39C13.62 24.21 18 18.7 18 13Z" fill="#7859CF"/>
      </symbol>
      <symbol viewBox="0 0 82 36" id="logo-short">
        <path d="M76.94 17.24h4.2v6.96c-.96.69-2.07 1.22-3.32 1.58-1.24.37-2.5.56-3.74.56a10.1 10.1 0 0 1-4.75-1.1 8.41 8.41 0 0 1-4.51-7.64c0-1.68.4-3.18 1.2-4.51a8.2 8.2 0 0 1 3.33-3.1 10.17 10.17 0 0 1 4.83-1.13c1.56 0 2.97.27 4.22.8a8.14 8.14 0 0 1 3.12 2.28l-3.02 2.73a5.33 5.33 0 0 0-4.08-1.87 4.7 4.7 0 0 0-3.48 1.32 4.66 4.66 0 0 0-1.32 3.48c0 .93.2 1.76.6 2.5.4.72.96 1.28 1.68 1.7a5 5 0 0 0 2.47.6c.91 0 1.77-.18 2.57-.55v-4.61Z" fill="#333333"/>
        <path fill-rule="evenodd" clip-rule="evenodd" d="M58 18c0 2.87-.6 5.59-1.66 8H43c2.46-3.77 5-8.34 5-13A13 13 0 0 0 38.42.45C39.57.15 40.77 0 42 0c8.84 0 16 8.06 16 18Zm-14-5a9 9 0 0 0-9-9c-6.65 0-9 8.5-9 14 0 9.94 7.16 18 16 18 4.74 0 9-2.32 11.93-6H35l1.1-1.39C39.62 24.21 44 18.7 44 13Z" fill="#7859CF"/>
        <path d="M1.85 9.2H9.8c1.84 0 3.47.34 4.9 1.03a7.77 7.77 0 0 1 3.3 2.93 8.25 8.25 0 0 1 1.18 4.44 7.77 7.77 0 0 1-4.49 7.37A11.12 11.12 0 0 1 9.8 26H1.86V9.2Zm7.75 13c1.44 0 2.6-.4 3.46-1.22a4.39 4.39 0 0 0 1.32-3.38c0-1.44-.44-2.57-1.32-3.38a4.83 4.83 0 0 0-3.46-1.23h-3v9.22h3Z" fill="#333333"/>
      </symbol>
      <symbol viewBox="0 0 170 36" id="logo-full">
        <path d="M142.94 17.24h4.2v6.96c-.96.69-2.07 1.22-3.32 1.58-1.24.37-2.5.56-3.74.56a10.1 10.1 0 0 1-4.75-1.1 8.41 8.41 0 0 1-4.51-7.64c0-1.68.4-3.18 1.2-4.51a8.2 8.2 0 0 1 3.33-3.1 10.17 10.17 0 0 1 4.83-1.13c1.56 0 2.97.27 4.22.8a8.14 8.14 0 0 1 3.12 2.28l-3.02 2.73a5.33 5.33 0 0 0-4.08-1.87 4.7 4.7 0 0 0-3.48 1.32 4.66 4.66 0 0 0-1.32 3.48c0 .93.2 1.76.6 2.5.4.72.96 1.28 1.68 1.7a5 5 0 0 0 2.47.6c.91 0 1.77-.18 2.57-.55v-4.61Zm16.16 9.1c-1.78 0-3.38-.38-4.8-1.13a8.58 8.58 0 0 1-3.34-3.12 8.53 8.53 0 0 1-1.2-4.49c0-1.66.4-3.16 1.2-4.49A8.58 8.58 0 0 1 154.3 10a10.12 10.12 0 0 1 4.8-1.13c1.78 0 3.37.38 4.78 1.13a8.37 8.37 0 0 1 4.56 7.61 8.4 8.4 0 0 1-4.56 7.6c-1.41.76-3 1.14-4.78 1.14Zm0-3.94a4.34 4.34 0 0 0 3.94-2.28c.4-.74.6-1.58.6-2.52s-.2-1.78-.6-2.5a4.3 4.3 0 0 0-3.94-2.3 4.3 4.3 0 0 0-3.94 2.3c-.4.72-.6 1.56-.6 2.5s.2 1.78.6 2.52a4.34 4.34 0 0 0 3.94 2.28Z" fill="#333333"/>
        <path fill-rule="evenodd" clip-rule="evenodd" d="M124 18c0 2.87-.6 5.59-1.66 8H109c2.46-3.77 5-8.34 5-13A13 13 0 0 0 104.42.45C105.57.15 106.77 0 108 0c8.84 0 16 8.06 16 18Zm-14-5a9 9 0 0 0-9-9c-6.65 0-9 8.5-9 14 0 9.94 7.16 18 16 18 4.74 0 9-2.32 11.93-6H101l1.1-1.39c3.52-4.4 7.9-9.91 7.9-15.61Z" fill="#7859CF"/>
        <path d="M2.65 9.2h7.94c1.84 0 3.48.34 4.9 1.03a7.77 7.77 0 0 1 3.31 2.93 8.25 8.25 0 0 1 1.18 4.44 7.77 7.77 0 0 1-4.49 7.37A11.12 11.12 0 0 1 10.6 26H2.65V9.2Zm7.75 13c1.44 0 2.6-.4 3.46-1.22a4.39 4.39 0 0 0 1.32-3.38c0-1.44-.44-2.57-1.32-3.38a4.83 4.83 0 0 0-3.46-1.23h-3v9.22h3Zm19.9-.66h-2.59V26h-4.75V9.2h7.68c1.52 0 2.84.26 3.96.77a5.77 5.77 0 0 1 2.6 2.16c.6.93.9 2.02.9 3.29 0 1.21-.29 2.28-.86 3.19-.56.9-1.37 1.6-2.43 2.11L38.44 26h-5.09l-3.05-4.46Zm3-6.12c0-.79-.25-1.4-.74-1.83-.5-.43-1.23-.65-2.2-.65H27.7v4.92h2.64c.98 0 1.71-.2 2.2-.62.5-.43.75-1.04.75-1.82Zm7.9-6.22h4.76V26H41.2V9.2Zm24.6 0V26H61.9l-7.42-8.95V26h-4.65V9.2h3.9l7.43 8.95V9.2h4.65Zm10.31 10.7-1.77 1.9V26h-4.7V9.2h4.7v6.98l6.5-6.98h5.23l-6.86 7.44L86.43 26h-5.52l-4.8-6.1Z" fill="#333333"/>
      </symbol>
      <symbol viewBox="0 0 20 20" id="social-icon-vk">
        <path fill-rule="evenodd" clip-rule="evenodd" d="M1.4 1.4C0 2.82 0 5.08 0 9.6v.8c0 4.53 0 6.79 1.4 8.2C2.82 20 5.08 20 9.6 20h.8c4.53 0 6.79 0 8.2-1.4 1.4-1.41 1.4-3.67 1.4-8.2v-.8c0-4.53 0-6.79-1.4-8.2C17.18 0 14.92 0 10.4 0h-.8C5.07 0 2.81 0 1.4 1.4Zm1.98 4.68c.1 5.2 2.7 8.33 7.26 8.33h.26v-2.98a4.11 4.11 0 0 1 3.45 2.98h2.37a6.58 6.58 0 0 0-3.43-4.18 6.35 6.35 0 0 0 2.93-4.15h-2.15c-.47 1.65-1.85 3.15-3.17 3.3v-3.3H8.75v5.77c-1.33-.33-3.02-1.95-3.1-5.77H3.39Z"/>
      </symbol>
      <symbol viewBox="0 0 22 22" id="social-icon-pinterest">
        <path d="M11 0a11 11 0 0 0-4 21.25c-.1-.87-.2-2.21.03-3.16l1.29-5.47s-.33-.66-.33-1.63c0-1.53.89-2.67 2-2.67.93 0 1.38.7 1.38 1.54 0 .95-.6 2.36-.9 3.67-.27 1.1.54 1.99 1.62 1.99 1.96 0 3.46-2.07 3.46-5.04 0-2.64-1.9-4.48-4.6-4.48A4.76 4.76 0 0 0 6 10.78c0 .94.36 1.96.82 2.5.09.12.1.21.07.32l-.3 1.25c-.05.2-.16.24-.37.15-1.38-.64-2.23-2.65-2.23-4.26 0-3.47 2.52-6.66 7.26-6.66 3.82 0 6.78 2.72 6.78 6.35 0 3.8-2.39 6.84-5.7 6.84-1.12 0-2.17-.58-2.52-1.26l-.69 2.62a12.3 12.3 0 0 1-1.37 2.88A11 11 0 1 0 11 0Z"/>
      </symbol>
      <symbol viewBox="0 0 20 20" id="social-icon-ok">
        <path fill-rule="evenodd" clip-rule="evenodd" d="M1.4 1.4C0 2.81 0 5.07 0 9.6v.91c0 4.46 0 6.7 1.4 8.09C2.81 20 5.07 20 9.6 20h.91c4.46 0 6.7 0 8.09-1.4 1.4-1.41 1.4-3.67 1.4-8.2v-.91c0-4.46 0-6.7-1.4-8.09C17.19 0 14.93 0 10.4 0h-.91C5.03 0 2.79 0 1.4 1.4Zm8.62 8.8A3.03 3.03 0 1 0 10 4.13a3.03 3.03 0 0 0 0 6.07Zm0-4.28a1.25 1.25 0 0 1 0 2.5c-.69 0-1.25-.56-1.25-1.25a1.23 1.23 0 0 1 1.25-1.25Zm1.21 6.76a5.73 5.73 0 0 0 1.76-.72.88.88 0 0 0 .28-1.24.88.88 0 0 0-1.24-.27 3.85 3.85 0 0 1-4.08 0 .9.9 0 0 0-1.23.27.9.9 0 0 0 .3 1.22c.55.34 1.15.58 1.77.72L7.1 14.35a.89.89 0 0 0 0 1.25c.18.18.4.25.63.25.24 0 .46-.09.64-.25l1.67-1.67 1.67 1.67a.89.89 0 0 0 1.25-1.25l-1.73-1.67Z"/>
      </symbol>
      <symbol viewBox="0 0 13 16" id="address">
        <path fill-rule="evenodd" clip-rule="evenodd" d="M11.8 6.5c0 2.33-1.37 4.42-2.91 6.01a17.54 17.54 0 0 1-2.39 2.05 16.93 16.93 0 0 1-2.39-2.05C2.57 10.91 1.2 8.83 1.2 6.5a5.3 5.3 0 1 1 10.6 0Zm1.2 0c0 5.59-6.5 9.5-6.5 9.5S0 12.09 0 6.5a6.5 6.5 0 0 1 13 0Zm-4.2 0a2.3 2.3 0 1 1-4.6 0 2.3 2.3 0 0 1 4.6 0Zm1.2 0a3.5 3.5 0 1 1-7 0 3.5 3.5 0 0 1 7 0Z" fill="#7859CF"/>
      </symbol>
      <symbol viewBox="0 0 13 16" id="phone">
        <path fill-rule="evenodd" clip-rule="evenodd" d="M1.48 1.49A2.7 2.7 0 0 0 .05 4.32L.4 6.09c.93 3.13 2.5 5.77 4.83 8.11l1.4 1.2c.86.72 2.17.8 3.24.2l2.23-1.25c.88-.49 1.17-1.53.63-2.26L10.8 9.5c-.52-.7-1.6-.82-2.37-.26l-1.38.99a5.23 5.23 0 0 1-2.17-3.67l1.56-.66c.9-.37 1.33-1.33.96-2.11L6.04.85C5.66.03 4.58-.25 3.7.25L1.48 1.48Zm-.2 2.53c-.12-.6.2-1.22.78-1.55L4.3 1.23c.22-.13.5-.06.59.15L6.24 4.3c.1.2-.02.43-.24.53L3.57 5.86l.02.42a6.28 6.28 0 0 0 3.07 5.16l.36.22 2.13-1.53c.2-.14.46-.11.59.06l1.93 2.61c.14.19.07.45-.15.57l-2.23 1.25c-.59.33-1.3.28-1.77-.12l-1.4-1.19A20.91 20.91 0 0 1 1.64 5.8l-.36-1.77Z" fill="#7859CF"/>
      </symbol>
      <symbol viewBox="0 0 12 16" id="icon-htmlacademy">
        <path d="M11.22 5.75 5.97 2.5.78 5.75V1.41L6 .83l5.22.58v4.34Zm0 .58-2.1 1.3-3.14-1.97v.57L8.66 7.9l-.46.29-2.22-1.4v.58l1.75 1.1-.41.29H7.3l-1.33-.82v.58l.87.53-.89.56L.8 6.4 5.97 3.1l5.24 3.22Zm0 5.44L6 15.04.78 11.77V7.03l5.2 3.25v.59L2.43 8.64v.57L6 11.47v.6L2.43 9.85v.57L6 12.67l3.6-2.27V7.96l1.62-1.01v4.82ZM6 0 0 .66v11.58L6 16l6-3.76V.66L6 0Z"/>
      </symbol>
      <symbol viewBox="0 0 20 16" id="add-cart">
        <path fill-rule="evenodd" clip-rule="evenodd" d="M13.67 13.52v-.02h1.35l-.03.21A2.67 2.67 0 0 1 12.35 16h-8.7A2.67 2.67 0 0 1 1 13.71L.19 8 0 6.67H4.55l-.22-2.68A3.68 3.68 0 0 1 11.62 3h-1.37a2.35 2.35 0 0 0-4.59.88l.23 2.79H9.5V8H6.06l.22 2.67h3.44l.01-.17h1.34l-.01.17h1.44V12h-1.55l-.23 2.67h1.63c.67 0 1.23-.5 1.32-1.15ZM4.72 8H1.54l.38 2.67h3.02L4.72 8Zm1.9 6.67L6.38 12h3.22l-.22 2.67H6.6ZM5.04 12l.23 2.67H3.65c-.67 0-1.23-.5-1.32-1.15L2.1 12h2.94Zm10.75-2V7.2H13V5.8h2.8V3h1.4v2.8H20v1.4h-2.8V10h-1.4Z" fill="#ffffff"/>
      </symbol>
    </svg>
